<svg width="20" height="20" viewBox="0 0 20 20" fill="none" xmlns="http://www.w3.org/2000/svg">
<path fill-rule="evenodd" clip-rule="evenodd" d="M3.25001 6.9998C3.25012 3.27197 6.27215 0.25 10 0.25C13.7279 0.25 16.75 3.27208 16.75 7L16.7498 7.04919V7.75C16.7498 9.87313 17.5508 11.8074 18.8684 13.2699C19.0349 13.4547 19.0989 13.71 19.0393 13.9516C18.9797 14.1931 18.8042 14.3893 18.5709 14.4755C17.0269 15.0455 15.4105 15.4659 13.7396 15.7192C13.7465 15.812 13.75 15.9056 13.75 16C13.75 18.0711 12.0711 19.75 10 19.75C7.92894 19.75 6.25001 18.0711 6.25001 16C6.25001 15.9056 6.25351 15.812 6.2604 15.7192C4.58934 15.4659 2.97287 15.0455 1.42875 14.4755C1.19539 14.3893 1.01992 14.1931 0.960329 13.9516C0.900734 13.71 0.964764 13.4547 1.13126 13.2699C2.44879 11.8074 3.24981 9.87313 3.24981 7.75L3.25001 6.9998ZM7.75221 15.8993C7.75075 15.9326 7.75001 15.9662 7.75001 16C7.75001 17.2426 8.75737 18.25 10 18.25C11.2427 18.25 12.25 17.2426 12.25 16C12.25 15.9662 12.2493 15.9326 12.2478 15.8992C11.5072 15.9659 10.7574 16 9.99981 16C9.24235 16 8.49266 15.966 7.75221 15.8993Z" fill="#E25D34"/>
</svg>
